<?xml version="1.0" standalone="no"?><svg xmlns="http://www.w3.org/2000/svg" viewBox="0 0 1440 320"><path fill="#c00b0b" fill-opacity="1" d="M0,192L21.8,165.3C43.6,139,87,85,131,85.3C174.5,85,218,139,262,154.7C305.5,171,349,149,393,138.7C436.4,128,480,128,524,144C567.3,160,611,192,655,192C698.2,192,742,160,785,138.7C829.1,117,873,107,916,106.7C960,107,1004,117,1047,144C1090.9,171,1135,213,1178,197.3C1221.8,181,1265,107,1309,85.3C1352.7,64,1396,96,1418,112L1440,128L1440,320L1418.2,320C1396.4,320,1353,320,1309,320C1265.5,320,1222,320,1178,320C1134.5,320,1091,320,1047,320C1003.6,320,960,320,916,320C872.7,320,829,320,785,320C741.8,320,698,320,655,320C610.9,320,567,320,524,320C480,320,436,320,393,320C349.1,320,305,320,262,320C218.2,320,175,320,131,320C87.3,320,44,320,22,320L0,320Z"></path></svg>