<svg id="Layer_2" data-name="Layer 2" xmlns="http://www.w3.org/2000/svg" xmlns:xlink="http://www.w3.org/1999/xlink" viewBox="0 0 400 300" width="406" height="306" class="illustration styles_illustrationTablet__1DWOa"><defs><linearGradient id="linear-gradient" x1="159.04" y1="240.26" x2="201.58" y2="201.8" gradientUnits="userSpaceOnUse"><stop offset="0" stop-color="#aa4200" stop-opacity="0"></stop><stop offset="0.98" stop-color="#aa003d"></stop></linearGradient><linearGradient id="linear-gradient-2" x1="320" y1="212.33" x2="332.08" y2="195.46" gradientTransform="translate(-3.41 3.55) rotate(-1.86)" xlink:href="#linear-gradient"></linearGradient><linearGradient id="linear-gradient-3" x1="40.16" y1="193.67" x2="63.64" y2="175.65" xlink:href="#linear-gradient"></linearGradient></defs><title>PP_</title><path d="M196.24,288.6,23.74,186.65c-5.49-3.08-10.2-8.15-4.85-11.46L192,75.41c2.6-1.61,6.54-2.66,9.18-1.13L382.28,179.37c5.49,3.19,6.48,12.1,1,15.29L219,288.44A22.94,22.94,0,0,1,196.24,288.6Z" fill="#f9d8a3"></path><polygon points="156.04 197.94 122.22 217.85 195.16 261.89 213.68 246.57 194 225.18 156.04 197.94" fill="url(#linear-gradient)"></polygon><path d="M205.89,135.09,185,137.47s9.08,39.78,10.69,35c.94-2.78,5.33-15.29,8.79-25.16A95,95,0,0,0,205.89,135.09Z" fill="#122840"></path><path d="M174.2,197.87s-1.3,3.65-.32,5.88,7.33,7.81,6.62,11.07-1.94,3.61-6,2.35-5.07-1.68-6.9-4.88-2-6.58-4.19-8.15l-1.49.91s-5.68-4.37-5.87-7.12,9.29-7.38,9.71-7.43S174.2,197.87,174.2,197.87Z" fill="#0b0f12"></path><path d="M201.55,225.78s3.23,7.27,6.47,10.39,6,8.2,5.66,10.39a3.88,3.88,0,0,1-3.81,3.12c-1.5.12-6.93,0-9.93-2.66s-7.27-10.62-7.27-10.62v3s-4-2.54-5.08-4.39v-12.7" fill="#0b0f12"></path><path d="M194,176.32c-.94-7.3-1.47-14.68-2-22-.55-7.92-.92-15.84-1.16-23.77-.48,7.25-3.18,21.66-4.95,23.46-8.51,8.66-24,34.68-24.28,37.57-.59,6.58,13.05,7.61,13.05,7.61s7.05-7.59,18.91-26.28C193.54,172.58,194,176.63,194,176.32Z" fill="#122840"></path><path d="M170.85,131c.57,2.28,8,38.44,8.83,43.56s7.4,52.67,9.4,54.38,10,2.28,14.24-2.28c0,0-3.7-43.28-4.27-49s-1.42-49.37-2.28-49.6S170.85,131,170.85,131Z" fill="#1f354d"></path><path d="M227.89,68.83s7.3-5.22,7.84-9.45a5.94,5.94,0,0,0-3.29-6l-5,6" fill="#e56461"></path><path d="M226.2,56.47c-.78,0-2.39-2-2.92-2.56a13.45,13.45,0,0,1-2.2-3.31c-3.15-6.81,1.07-16,8.92-16.5a14.53,14.53,0,0,1,1.67,0c5.15.24,9.08,5.37,9.55,10.22A14.35,14.35,0,0,1,240,51.43a10.79,10.79,0,0,1-2,2.88c-.56.59-2.23,2.4-3.09,2.38Z" fill="#fbb03b"></path><path d="M228.69,57l-1-13.62s-1.83-3.34-3.11-1,1.38,3.91,6.8,3.68,6.41-2.79,5.22-3.78-3.15.38-3.25,1.08S232.13,57,232.13,57" fill="none" stroke="#f2f2f2" stroke-miterlimit="10" stroke-width="0.5"></path><rect x="224.01" y="56.25" width="13.28" height="3.13" rx="1.19" ry="1.19" fill="#ccc"></rect><rect x="224.01" y="59.38" width="13.28" height="3.13" rx="1.19" ry="1.19" fill="#ccc"></rect><path d="M188.91,143.64c1.18.07,3.35,0,4.52,0l.36-18.45,1.36,18.47c5.08,0,11.24-2.84,13.8-8.92-.69-9.62-1.85-32.94-1.85-32.94l-30.77,1.48-.06.19a1.17,1.17,0,0,1-.22.72h0c-2.94,9.87-7.49,26.53-9.47,36.62C172.82,143.72,182.54,143.27,188.91,143.64Z" fill="#152b3f"></path><path d="M222.46,66.74s1.17-5.77,1.17-6.19,1.6-5.34,3.2-5.45,5,.11,5.45,1.07-2.35,1.87-4.17,1.89c0,0,2.88,3.23,1.82,7.08a11.44,11.44,0,0,1-4.7,6" fill="#f67770"></path><path d="M179.09,115c2.43-.09,9.2,1.61,13.81,1.27A50.76,50.76,0,0,0,206,113.93c.17-.82.33-1.67.45-2.61,3.06-23.65,2.25-40.24,0-44s-15.69-6.71-21.81-5-15.32,8.83-15.32,8.83,2.52,20.06,7,34.33C177.63,109.48,177.63,109.48,179.09,115Z" fill="#152b3f"></path><path d="M206.49,67.34a77.18,77.18,0,0,1,6.75,15.42s7.45-17.87,8.89-17.62,6.41,3.35,6.82,5.42-7.38,29.58-16.92,32.06-14.92-18.74-14.92-18.74" fill="#152b3f"></path><path d="M162.43,118.26l31.92,14.43.81,29.4-2.49,1S158,147.76,158,147.15,162.43,118.26,162.43,118.26Z" fill="#ce4823"></path><path d="M188,129.84a1.64,1.64,0,0,0,.49-1.08c.44-6.39.8-15.18-7.56-16.1-5.92-.65-11.09,2.78-12.36,8.39l-6.17-2.79c-.12.79,11.33,22.83,13.95,22.41s18-8,18-8Zm-16.34-7.39a7.78,7.78,0,0,1,9.82-6.36c5.22,1.34,4,8.43,3.7,12.47Z" fill="#ad361a"></path><path d="M184.17,111.21l-5-1.73c-2.55-.89-6,2.27-5.47,4.71.24,1.1,1.61,3.1,3.17,5a9.66,9.66,0,0,1,2.89-.56c.77.06,1.2.53,1.88.75q.37.28.72.58,2.84.14,3-2.33a1.46,1.46,0,0,1,.05-.3c-1.54-1.76-3.21-3.61-2.59-3.54,1.09.12,6.24,1.22,6,0S184.17,111.21,184.17,111.21Z" fill="#f67770"></path><path d="M175,118.57a6.64,6.64,0,0,0,1.2.73c.87-.09,1.79-.49,2.72-.63-.65-1-3.73-5.42-4.56-5.8s-.73,1.95-.73,1.95S174.27,116.71,175,118.57Z" fill="#f67770"></path><path d="M169.58,70.89S154.59,89,153,95.43s19,22,19,22l7.51-8S166.17,96.8,168.08,94.87,180.25,83.3,180.25,83.3" fill="#152b3f"></path><path d="M180.25,64.38s1.76,2.74,2.37,3.83c13.16,23.45,17.65,44,16.79,42.44,0,0-.51-41.75-.9-43.35-.94-3.9-2.34-4.7-2.34-4.7S189.21,58.41,180.25,64.38Z" fill="#fff"></path><path d="M181.73,63.43l4.66,5.72c.52-.45,4.46-4.78,4.46-4.78l3.45,3.42,1.43-5.27S187.32,60.38,181.73,63.43Z" fill="#ccc"></path><path d="M187.74,67.59a35.64,35.64,0,0,0,3.53,2.64c.3,0,2.41-3.09,2.41-3.09l-2.83-2.78Z" fill="#d83e3a"></path><path d="M190.71,68.44c-.16.22,1.76,20.18,1.76,20.18l7.13,22.64-.55-23.72-7.63-19.11Z" fill="#d83e3a"></path><path d="M184.52,56.25l1.59,6.26s.38,1.78,4.75,1.85c0,0,2.82.34,2.83-2.24,0-.85,0-4.31,0-4.31" fill="#d85855"></path><path d="M187.51,53.6c-.92-.82-2.85-2.3-2.7-3.77a2.69,2.69,0,0,0,.27-.37,2.79,2.79,0,0,0-1-3.78,4.45,4.45,0,0,1-.69-.42c2.34-1,1.95-5.28-1.17-5.3a4.78,4.78,0,0,0-4.68,4.88,6,6,0,0,0,1.86,4.24c-.26,3.47,1.62,6.14,4.19,8.44a2.83,2.83,0,0,0,3.91,0A2.79,2.79,0,0,0,187.51,53.6Z" fill="#200904"></path><path d="M202.55,42.51l-.14-.11c-1-1,.09-3.72-1.64-5.51s-2.87.55-4.47-.6-5.87-3.28-9.48-1.79-3.55,4.73-5.5,5.07a3.43,3.43,0,0,0-3.14,3.08c-.17,1.25,2,9.24,3.93,13.5a8.7,8.7,0,0,0,3.1,1.75l14.71-7.67a14.78,14.78,0,0,0,2.78-2.83A5,5,0,0,0,202.55,42.51Z" fill="#200904"></path><path d="M199.28,44.54c.74.79-1.69,16.44-6.46,17s-8.73-5.29-9.23-7.17-1.86-12.34.07-13.29S194.82,39.73,199.28,44.54Z" fill="#f67770"></path><path d="M197.05,40s.94,3.64-4.76,4.32-6.08,2-6.75,4c-1.27,3.75-5.26,8.11-6.63-3.15-.07-.54,4-8.26,8.45-8.86S197.05,40,197.05,40Z" fill="#200904"></path><path d="M185,50.3s-1.79-3.08-3.17-1.61.11,4,2,5.1" fill="#f67770"></path><circle cx="196.93" cy="50.4" r="2.72" fill="none" stroke="#000" stroke-miterlimit="10" stroke-width="0.5"></circle><circle cx="189.7" cy="50.4" r="2.72" fill="none" stroke="#000" stroke-miterlimit="10" stroke-width="0.5"></circle><line x1="194.21" y1="50.4" x2="192.42" y2="50.4" fill="none" stroke="#000" stroke-miterlimit="10" stroke-width="0.5"></line><line x1="184.81" y1="49.83" x2="187.01" y2="50.08" fill="none" stroke="#000" stroke-miterlimit="10" stroke-width="0.5"></line><path d="M327.94,179.13c-8.69,5.83-17,11.1-25.25,16.39,8.82,4.5,21,10.88,27.06,14.34,5.67-3.3,25-15,31.87-21.09Z" opacity="0.32" fill="url(#linear-gradient-2)"></path><ellipse cx="346.68" cy="180.72" rx="19.03" ry="13.4" transform="matrix(1, -0.03, 0.03, 1, -5.69, 11.36)" fill="#68e1fd"></ellipse><ellipse cx="346.44" cy="172.81" rx="14.25" ry="5.84" transform="translate(-5.43 11.34) rotate(-1.86)" fill="#974c26"></ellipse><path d="M347.39,172.91c1.07-1.61,2.14-3.3,3.26-5.18,1.43-2.41,2.76-4.88,4-7.4a48,48,0,0,0,2.85-7,57.5,57.5,0,0,0,2-8c.12-.71.23-1.42.32-2.13,0-.33.05-.29.05-.25s0-.23,0-.61c.08-1.44.13-2.88.1-4.33a36.38,36.38,0,0,0-3.3-14.47,62.82,62.82,0,0,0-9.36,25.2q-.12.8-.23,1.61s-.11,1-.16,1.37-.1,1.24-.11,1.35q-.07,1-.12,2c-.12,2.63-.13,5.26,0,7.9C346.76,166.36,347,169.64,347.39,172.91Zm4.78-39.51q.5-.6,1-1.18h0a2.37,2.37,0,0,0,0,1A3.26,3.26,0,0,0,352.17,133.41Z" fill="#999a1c"></path><path d="M347.76,173.14c0-1.93,0-3.93-.06-6.12-.1-2.8-.31-5.6-.66-8.38a48,48,0,0,0-1.38-7.41,57.5,57.5,0,0,0-2.63-7.78c-.28-.66-.58-1.32-.88-2-.14-.3-.11-.27-.09-.24l-.31-.53c-.71-1.26-1.45-2.5-2.26-3.7a36.38,36.38,0,0,0-10.6-10.39,62.82,62.82,0,0,0,5.75,26.26q.33.74.68,1.48l.61,1.24.64,1.19q.49.9,1,1.79c1.32,2.28,2.74,4.5,4.23,6.67C343.68,168,345.68,170.59,347.76,173.14Zm-17.33-35.82q.09-.78.23-1.55h0a2.37,2.37,0,0,0,.53.88A3.26,3.26,0,0,0,330.43,137.32Z" fill="#999a1c"></path><path d="M347.89,174.14c-.6-1.05-1.26-2.13-2-3.28-1-1.48-2-2.92-3.06-4.31a30.2,30.2,0,0,0-3.14-3.56,36.16,36.16,0,0,0-3.93-3.35c-.36-.27-.74-.52-1.11-.78-.17-.12-.15-.11-.12-.1l-.34-.19c-.79-.45-1.59-.88-2.41-1.27a22.88,22.88,0,0,0-9.07-2.18,39.51,39.51,0,0,0,11.58,12.32l.84.58.73.47.73.44,1.12.64q2.17,1.21,4.44,2.23C344,172.67,345.94,173.43,347.89,174.14ZM327,160.41q-.2-.45-.38-.91h0a1.49,1.49,0,0,0,.57.3A2.05,2.05,0,0,0,327,160.41Z" fill="#999a1c"></path><path d="M347.39,172.91c1.07-1.61,2.14-3.3,3.26-5.18,1.43-2.41,2.76-4.88,4-7.4a48,48,0,0,0,2.85-7,57.5,57.5,0,0,0,2-8c.12-.71.23-1.42.32-2.13,0-.33.05-.29.05-.25s0-.23,0-.61c.08-1.44.13-2.88.1-4.33a36.38,36.38,0,0,0-3.3-14.47,62.82,62.82,0,0,0-9.36,25.2q-.12.8-.23,1.61s-.11,1-.16,1.37-.1,1.24-.11,1.35q-.07,1-.12,2c-.12,2.63-.13,5.26,0,7.9C346.76,166.36,347,169.64,347.39,172.91Zm4.78-39.51q.5-.6,1-1.18h0a2.37,2.37,0,0,0,0,1A3.26,3.26,0,0,0,352.17,133.41Z" fill="#999a1c"></path><path d="M347.76,173.14c0-1.93,0-3.93-.06-6.12-.1-2.8-.31-5.6-.66-8.38a48,48,0,0,0-1.38-7.41,57.5,57.5,0,0,0-2.63-7.78c-.28-.66-.58-1.32-.88-2-.14-.3-.11-.27-.09-.24l-.31-.53c-.71-1.26-1.45-2.5-2.26-3.7a36.38,36.38,0,0,0-10.6-10.39,62.82,62.82,0,0,0,5.75,26.26q.33.74.68,1.48l.61,1.24.64,1.19q.49.9,1,1.79c1.32,2.28,2.74,4.5,4.23,6.67C343.68,168,345.68,170.59,347.76,173.14Zm-17.33-35.82q.09-.78.23-1.55h0a2.37,2.37,0,0,0,.53.88A3.26,3.26,0,0,0,330.43,137.32Z" fill="#999a1c"></path><path d="M347.89,174.14c-.6-1.05-1.26-2.13-2-3.28-1-1.48-2-2.92-3.06-4.31a30.2,30.2,0,0,0-3.14-3.56,36.16,36.16,0,0,0-3.93-3.35c-.36-.27-.74-.52-1.11-.78-.17-.12-.15-.11-.12-.1l-.34-.19c-.79-.45-1.59-.88-2.41-1.27a22.88,22.88,0,0,0-9.07-2.18,39.51,39.51,0,0,0,11.58,12.32l.84.58.73.47.73.44,1.12.64q2.17,1.21,4.44,2.23C344,172.67,345.94,173.43,347.89,174.14ZM327,160.41q-.2-.45-.38-.91h0a1.49,1.49,0,0,0,.57.3A2.05,2.05,0,0,0,327,160.41Z" fill="#999a1c"></path><polyline points="247.14 117.83 256.24 142.98 296.94 119.65 288.21 93.97" fill="#68e1fd"></polyline><polygon points="247.14 117.83 276.31 119.22 288.21 93.97 247.14 117.83" fill="#f9847f"></polygon><polyline points="306.86 77.65 324.08 103.45 361.53 69.18 340.2 37.54" fill="#68e1fd"></polyline><polygon points="306.86 77.65 331.3 75.54 340.2 37.54 306.86 77.65" fill="#f9847f"></polygon><polyline points="99.8 83.04 84 74.64 46.11 96.52 46.11 178.51 61.72 187.54" fill="#68e1fd"></polyline><polyline points="99.8 83.04 84 74.64 46.11 96.52 46.11 178.51 61.72 187.54" fill="#152b3f" opacity="0.31"></polyline><path d="M61.72,187.54c1.19-.1,0-82.51,0-82.51L99.8,83v83.09Z" fill="#68e1fd"></path><polyline points="99.8 98.55 61.91 119.87 46.11 111.83" fill="none" stroke="#f2f2f2" stroke-miterlimit="10" stroke-width="0.25"></polyline><polyline points="99.8 119.87 61.91 141.2 46.11 133.15" fill="none" stroke="#f2f2f2" stroke-miterlimit="10" stroke-width="0.25"></polyline><polyline points="99.8 139.07 61.91 160.4 46.11 152.35" fill="none" stroke="#f2f2f2" stroke-miterlimit="10" stroke-width="0.25"></polyline><polyline points="99.8 158.44 61.91 179.77 46.11 171.72" fill="none" stroke="#f2f2f2" stroke-miterlimit="10" stroke-width="0.25"></polyline><polygon points="61.72 105.03 46.11 96.52 84 74.64 99.8 83.04 61.72 105.03" fill="#68e1fd"></polygon><polygon points="61.72 105.03 46.11 96.52 84 74.64 99.8 83.04 61.72 105.03" fill="#fff" opacity="0.43"></polygon><ellipse cx="68.9" cy="107.74" rx="2.78" ry="2.3" transform="translate(-56.92 130.65) rotate(-67.72)" fill="#fff"></ellipse><path d="M94.79,93.57,74.54,104.71c-.42.23,0,.88.38.65L95.17,94.22c.42-.23,0-.88-.38-.65Z" fill="#f2f2f2"></path><ellipse cx="68.9" cy="126.39" rx="2.78" ry="2.3" transform="translate(-74.18 142.22) rotate(-67.72)" fill="#fff"></ellipse><path d="M94.79,112.22,74.54,123.35c-.42.23,0,.88.38.65l20.25-11.13c.42-.23,0-.88-.38-.65Z" fill="#f2f2f2"></path><ellipse cx="68.9" cy="146.77" rx="2.78" ry="2.3" transform="translate(-93.03 154.87) rotate(-67.72)" fill="#fff"></ellipse><path d="M94.79,132.59,74.54,143.73c-.42.23,0,.88.38.65l20.25-11.13c.42-.23,0-.88-.38-.65Z" fill="#f2f2f2"></path><ellipse cx="68.9" cy="165.27" rx="2.78" ry="2.3" transform="translate(-110.15 166.36) rotate(-67.72)" fill="#fff"></ellipse><path d="M94.79,151.09,74.54,162.23c-.42.23,0,.88.38.65l20.25-11.13c.42-.23,0-.88-.38-.65Z" fill="#f2f2f2"></path><path d="M236.66,27.08,235.85,30a1.66,1.66,0,0,0,3.2.88l.82-2.93A1.66,1.66,0,0,0,236.66,27.08Z" fill="#fbb03b"></path><path d="M246.35,28.92l-4.61,4.16c-1.44,1.3.68,3.42,2.11,2.13l4.61-4.16C249.9,29.75,247.78,27.63,246.35,28.92Z" fill="#fbb03b"></path><path d="M247.5,39.13a1.51,1.51,0,0,0-1.85-1,12.25,12.25,0,0,1-1.9.53,1.51,1.51,0,0,0-1,1.85,1.53,1.53,0,0,0,1.85,1,12.25,12.25,0,0,0,1.9-.53A1.54,1.54,0,0,0,247.5,39.13Z" fill="#fbb03b"></path><polyline points="46.11 178.51 30.26 190.5 46.11 199.87 61.72 187.54" fill="url(#linear-gradient-3)"></polyline></svg>