<svg xmlns="http://www.w3.org/2000/svg" viewBox="0 0 400 300" width="406" height="306" class="illustration styles_illustrationTablet__1DWOa"><g id="_35" data-name="#35"><path d="M177.73,146.54l-7.73-13v-21.7h.25a.68.68,0,0,0,.68-.68v-.1a.68.68,0,0,0-.68-.68h-4.72a.68.68,0,0,0-.68.68v.1a.68.68,0,0,0,.68.68h.25v21.7l-7.73,13a2.79,2.79,0,0,0,2.4,4.21h14.88A2.79,2.79,0,0,0,177.73,146.54Z" fill="#fff"></path><path d="M175.33,151.25H160.45a3.28,3.28,0,0,1-2.83-5l7.66-12.89V112.31a1.18,1.18,0,0,1-.93-1.15,1.21,1.21,0,0,1,1.18-1.28h4.72a1.18,1.18,0,0,1,1.18,1.18,1.23,1.23,0,0,1-.93,1.25V133.4l7.66,12.89h0a3.28,3.28,0,0,1-2.83,5Zm-9.8-40.37a.18.18,0,0,0-.18.18c0,.2.08.28.18.28h.25a.5.5,0,0,1,.5.5v21.7a.52.52,0,0,1-.07.25l-7.73,13a2.28,2.28,0,0,0,2,3.45h14.88a2.28,2.28,0,0,0,2-3.45l-7.73-13a.43.43,0,0,1-.07-.25v-21.7a.5.5,0,0,1,.5-.5h.25a.18.18,0,0,0,.18-.18c0-.2-.08-.28-.18-.28Z" fill="#d1d3d4"></path><path d="M163.41,141.77l-2.47,4.15a1.77,1.77,0,0,0,1.52,2.67h10.85a1.77,1.77,0,0,0,1.52-2.67l-2.46-4.15Z" fill="#d1d3d4"></path><rect x="84.25" y="32.44" width="108.24" height="60.03" fill="#fff"></rect><path d="M192.49,93H84.25a.5.5,0,0,1-.5-.5v-60a.5.5,0,0,1,.5-.5H192.49a.5.5,0,0,1,.5.5v60A.5.5,0,0,1,192.49,93ZM84.75,92H192v-59H84.75Z" fill="#d1d3d4"></path><path d="M143.74,121.83v-18h.43a1.18,1.18,0,0,0,1.18-1.18v-.16a1.18,1.18,0,0,0-1.18-1.18H136a1.18,1.18,0,0,0-1.19,1.18v.16a1.18,1.18,0,0,0,1.19,1.18h.43v18a16.11,16.11,0,0,0-6.28,28.39H150a16.12,16.12,0,0,0-6.28-28.39Z" fill="#fff"></path><path d="M150,150.72h-19.9a.47.47,0,0,1-.31-.11,16.61,16.61,0,0,1,6.09-29.17V104.33a1.68,1.68,0,0,1-1.62-1.68v-.16a1.69,1.69,0,0,1,1.69-1.68h8.2a1.68,1.68,0,0,1,1.68,1.68v.16a1.68,1.68,0,0,1-1.61,1.68v17.11a16.62,16.62,0,0,1,6.09,29.17A.51.51,0,0,1,150,150.72Zm-19.73-1h19.56a15.62,15.62,0,0,0-6.23-27.4.5.5,0,0,1-.38-.49v-18a.5.5,0,0,1,.5-.5h.43a.67.67,0,0,0,.68-.68v-.16a.67.67,0,0,0-.68-.68H136a.68.68,0,0,0-.69.68v.16a.68.68,0,0,0,.69.68h.43a.5.5,0,0,1,.5.5v18a.49.49,0,0,1-.39.49,15.61,15.61,0,0,0-6.22,27.4Z" fill="#d1d3d4"></path><path d="M121.47,145.09l-10.39-17.5V107.38h.33a.92.92,0,0,0,.92-.92v-.12a.92.92,0,0,0-.92-.92h-6.35a.92.92,0,0,0-.92.92v.12a.92.92,0,0,0,.92.92h.34v20.21L95,145.09a3.75,3.75,0,0,0,3.23,5.66h20A3.74,3.74,0,0,0,121.47,145.09Z" fill="#fff"></path><path d="M118.25,151.25h-20a4.25,4.25,0,0,1-3.66-6.42l10.33-17.37V107.87a1.42,1.42,0,0,1-1.26-1.41v-.12a1.43,1.43,0,0,1,1.42-1.42h6.35a1.42,1.42,0,0,1,1.42,1.42v.12a1.42,1.42,0,0,1-1.25,1.41v19.59l10.32,17.37h0a4.25,4.25,0,0,1-3.65,6.42Zm-13.19-45.33a.42.42,0,0,0-.42.42v.12a.42.42,0,0,0,.42.42h.34a.5.5,0,0,1,.5.5v20.21a.59.59,0,0,1-.07.26l-10.4,17.49a3.25,3.25,0,0,0,2.8,4.91h20a3.25,3.25,0,0,0,2.79-4.91l-10.39-17.49a.48.48,0,0,1-.07-.26V107.38a.5.5,0,0,1,.5-.5h.33a.42.42,0,0,0,.42-.42v-.12a.42.42,0,0,0-.42-.42Z" fill="#d1d3d4"></path><rect x="87.07" y="162.37" width="225.86" height="88.01" fill="#fff"></rect><path d="M312.93,250.88H87.07a.5.5,0,0,1-.5-.5v-88a.5.5,0,0,1,.5-.5H312.93a.5.5,0,0,1,.5.5v88A.5.5,0,0,1,312.93,250.88Zm-225.36-1H312.43v-87H87.57Z" fill="#d1d3d4"></path><path d="M122.52,210.07a8.29,8.29,0,0,0-1-4.53c-.6-1-1.53-1.8-2-2.87-.86-1.84-.25-4-.46-6a7.52,7.52,0,0,0-2.11-4.49c-1.06-1.07-2.42-1.8-3.43-2.92-1.66-1.82-2.13-4.39-3.07-6.67a16.68,16.68,0,0,0-6.61-7.78c1.8,3.62-2.31,8.24-.45,11.84.59,1.14,1.72,2,2.15,3.18,1,2.92-2.43,6.08-1.32,9,.56,1.44,2.1,2.28,2.82,3.65,1,1.85.21,4.09.29,6.18.11,2.88,1.86,5.46,3.94,7.45,1.3,1.24,2.74,2.32,4.15,3.44,1.67,1.34,2.38,2.75,3.85.6A18.51,18.51,0,0,0,122.52,210.07Z" fill="#231f20"></path><path d="M124.39,211.72c-.53-2.23-.92-4.65,0-6.75,1-2.38,3.59-4.06,3.89-6.63.19-1.69-.66-3.39-.33-5.06s1.7-2.8,2.82-4a16.84,16.84,0,0,0,4.35-10.3,25.57,25.57,0,0,1,4.14,6.85,8.81,8.81,0,0,1-.6,7.73,6.91,6.91,0,0,0-1.05,1.71c-.51,1.64.9,3.18,1.62,4.73a5.43,5.43,0,0,1-.51,5.58c-1.47,1.84-4.31,2.55-5,4.79a10.74,10.74,0,0,0-.26,2.54,7.42,7.42,0,0,1-5.36,6.39c-1.74.43-1.71-.26-2-1.73C125.62,215.58,124.87,213.68,124.39,211.72Z" fill="#231f20"></path><path d="M118.85,195.69c-1.23-4.28-1.73-8.75-3-13a72.75,72.75,0,0,0-4-9.7l5.31,2.24c1.7.71,3.54,1.56,4.34,3.22,1.4,2.9-1.11,6.61.36,9.48a23.83,23.83,0,0,0,2.1,2.64c1.56,2.19,1.32,5.21.47,7.77-.37,1.09-2,6.77-3.42,5.19-.58-.63-.62-3-.87-3.84C119.69,198.34,119.24,197,118.85,195.69Z" fill="#231f20"></path><path d="M121.71,252.56c-1-7-4.37-31.65-4.4-31.9l1-.13c0,.24,3.35,24.89,4.4,31.88Z" fill="#231f20"></path><path d="M123,259.16h-1c.06-8.3,3.53-40.07,5.53-42.26l.74.68C126.79,219.23,123.11,249.93,123,259.16Z" fill="#231f20"></path><path d="M124.84,257.58l-1-.05c.79-17.9-3-55.51-3-55.89l1-.1C121.83,201.92,125.63,239.6,124.84,257.58Z" fill="#231f20"></path><path d="M112.66,232.51h19.76L131,255c-.24,3.89-3.12,6.9-6.59,6.9h-3.82c-3.47,0-6.35-3-6.59-6.9Z" fill="#fff"></path><path d="M124.45,262.36h-3.82c-3.73,0-6.85-3.24-7.1-7.38l-1.39-22.44a.52.52,0,0,1,.14-.39.55.55,0,0,1,.38-.16h19.76a.55.55,0,0,1,.38.16.62.62,0,0,1,.14.39L131.55,255C131.3,259.12,128.18,262.36,124.45,262.36ZM113.21,233l1.35,21.9c.22,3.6,2.89,6.41,6.07,6.41h3.82c3.18,0,5.85-2.81,6.07-6.41l1.35-21.9Z" fill="#231f20"></path><rect x="81.74" y="150.75" width="236.53" height="11.54" fill="#fff"></rect><path d="M318.26,162.79H81.74a.5.5,0,0,1-.5-.5V150.75a.5.5,0,0,1,.5-.5H318.26a.5.5,0,0,1,.5.5v11.54A.5.5,0,0,1,318.26,162.79Zm-236-1H317.76V151.25H82.24Z" fill="#d1d3d4"></path><path d="M265.4,68.89s9.45,36.15,10.7,35.68S283,94.7,283,94.7l3.13,21s-4.29,14.73-14.77,15.35c-7.27.44-10.6-16.8-10.44-20.56S265.4,68.89,265.4,68.89Z" fill="#68e1fd"></path><path d="M280.14,112.84A6.52,6.52,0,0,0,282,114.2c6.53,3.31,13.68-4,12.4-10.48a8.64,8.64,0,0,0-8.44-6.86c-2.66.11-6.24,1.33-7.46,3.91a9.9,9.9,0,0,0-.82,4,13.48,13.48,0,0,0,.81,5.38A8.29,8.29,0,0,0,280.14,112.84Z" fill="#fff"></path><path d="M285.34,115.49a8,8,0,0,1-3.59-.88,7.12,7.12,0,0,1-1.94-1.46h0a8.93,8.93,0,0,1-1.8-2.84,13.82,13.82,0,0,1-.84-5.57,10.27,10.27,0,0,1,.87-4.17c1.27-2.69,5-4,7.85-4.17a9.12,9.12,0,0,1,8.9,7.23,10.4,10.4,0,0,1-4.15,10A8.81,8.81,0,0,1,285.34,115.49Zm.86-18.18h-.27c-2.63.11-6,1.3-7.07,3.65a9.39,9.39,0,0,0-.77,3.81,13,13,0,0,0,.77,5.21,7.92,7.92,0,0,0,1.61,2.54h0a6.2,6.2,0,0,0,1.69,1.27,7.3,7.3,0,0,0,7.93-.93,9.47,9.47,0,0,0,3.81-9A8.19,8.19,0,0,0,286.2,97.31Z" fill="#231f20"></path><path d="M288.34,88.16h-7.7a1.11,1.11,0,0,0,0,2.21h.28v31.25a3.57,3.57,0,1,0,7.14,0V90.37h.28a1.11,1.11,0,1,0,0-2.21Z" fill="#fff"></path><path d="M284.49,125.64a4,4,0,0,1-4-4V90.82a1.57,1.57,0,0,1,.18-3.12h7.7a1.57,1.57,0,0,1,.18,3.12v30.8A4,4,0,0,1,284.49,125.64Zm-3.85-37a.66.66,0,0,0-.65.65.66.66,0,0,0,.65.66h.28a.46.46,0,0,1,.46.45v31.25a3.11,3.11,0,0,0,6.22,0V90.37a.46.46,0,0,1,.46-.45h.28a.66.66,0,0,0,.65-.66.65.65,0,0,0-.65-.65Z" fill="#231f20"></path><path d="M259.26,37.72a61.89,61.89,0,0,1,2.22,10.69c.26,2.23,1.55,7.29-.64,8.58-2.93,1.73-7.14,2.43-10.43,3.16a100,100,0,0,1-10.35,1.66c-3.69.41-18.77,1.71-19.94,1.11.36-6,.39-12.17.95-18.19s2.5-12.41,7.22-16.25c2.11-1.71,5-2.84,7.54-2a15.32,15.32,0,0,1,19.63,3.26A24.08,24.08,0,0,1,259.26,37.72Z" fill="#fff"></path><path d="M222.12,63.52a7,7,0,0,1-2.21-.2.46.46,0,0,1-.25-.43c.14-2.31.23-4.68.32-7,.14-3.69.29-7.52.64-11.23.48-5.21,2.16-12.31,7.38-16.56,2.5-2,5.38-2.83,7.76-2.17a15.77,15.77,0,0,1,20.05,3.48,24.44,24.44,0,0,1,3.88,8.15h0a61.61,61.61,0,0,1,2.25,10.76c0,.37.11.81.19,1.3.41,2.59,1,6.5-1.06,7.73-2.58,1.52-6,2.26-9.1,2.9l-1.46.31a96.88,96.88,0,0,1-10.4,1.67C238.66,62.42,227.12,63.52,222.12,63.52Zm-1.52-1c2.2.29,14.53-.68,19.41-1.22a94.66,94.66,0,0,0,10.3-1.65l1.47-.31c3-.63,6.38-1.35,8.83-2.79,1.55-.92,1-4.46.62-6.8-.08-.51-.16-1-.2-1.34a60.79,60.79,0,0,0-2.21-10.61h0A23.79,23.79,0,0,0,255.1,30a14.84,14.84,0,0,0-19-3.16.43.43,0,0,1-.38.06c-2.12-.68-4.78.05-7.11,1.94-5,4-6.58,10.9-7.05,15.93-.35,3.69-.49,7.5-.64,11.18C220.81,58.13,220.72,60.37,220.6,62.57Z" fill="#231f20"></path><path d="M262.65,207.57l-1.51,62.52s-30.72,4.05-31.46,2.94S246.8,262.3,246.8,262.3l-.6-51.59" fill="#fff"></path><path d="M231.61,273.65c-1.41,0-2.2-.12-2.35-.34a.66.66,0,0,1-.08-.53c.4-1.6,11.89-8,17.11-10.78l-.59-51.28a.51.51,0,0,1,.5-.51.48.48,0,0,1,.5.5l.6,51.58a.5.5,0,0,1-.27.45c-7.29,3.93-15,8.48-16.62,10,3.15.26,19.63-1.67,30.24-3.06l1.5-62.09a.51.51,0,0,1,.51-.49.5.5,0,0,1,.49.51l-1.51,62.52a.49.49,0,0,1-.43.48C245.76,272.62,235.86,273.65,231.61,273.65Z" fill="#231f20"></path><path d="M240.4,263.64l5.69,5,16.19-2.41.1,6.43s-35.74,5.08-37.39,2.13S240.4,263.64,240.4,263.64Z" fill="#231f20"></path><path d="M233.23,207.85,223,262.68s-30.88,2.58-31.57,1.43,17.61-9.9,17.61-9.9l5.64-52.7" fill="#fff"></path><path d="M195.31,264.87c-2.7,0-4.15-.17-4.35-.5a.7.7,0,0,1-.06-.53c.48-1.58,12.29-7.4,17.64-10l5.61-52.42a.51.51,0,0,1,.55-.45.5.5,0,0,1,.44.55l-5.64,52.71a.48.48,0,0,1-.28.39c-7.47,3.58-15.43,7.76-17.08,9.18,3.12.39,19.73-.74,30.4-1.63l10.2-54.45a.5.5,0,1,1,1,.19l-10.26,54.82a.5.5,0,0,1-.45.4C209.56,264.3,200.31,264.87,195.31,264.87Zm-3.61-1.13Z" fill="#231f20"></path><path d="M202.55,255.25l5.45,5.3,16.28-1.63-.21,6.42s-35.94,3.37-37.45.35S202.55,255.25,202.55,255.25Z" fill="#231f20"></path><path d="M261.58,127.36c0,.62.66,7.56.37,19.43-.86,35.4-2.5,68-2.5,68l-50.93-2.08s-16-39.36,5.47-89.29Z" fill="#231f20"></path><polygon points="218.93 127.75 227.2 69.98 256.12 67.15 252.74 130.61 218.93 127.75" fill="#fff"></polygon><path d="M252.74,131.07h0l-33.81-2.87a.44.44,0,0,1-.32-.17.43.43,0,0,1-.09-.35l8.27-57.76a.46.46,0,0,1,.41-.39l28.91-2.83a.42.42,0,0,1,.36.12.48.48,0,0,1,.15.36l-3.39,63.45a.44.44,0,0,1-.45.44Zm-33.29-3.74,32.86,2.79,3.32-62.46-28,2.74Z" fill="#231f20"></path><path d="M266.65,111.93l14.4,107.39-38.82,4.07L249.17,69.9l-16.71-.67c0,.64-7.61,139.62-9.33,153.53L190.88,219s8.25-44.56,13.78-69.19S214.37,100,214.37,100s-3.6-22.83,1.56-31.62c2.57-4.39,8.9-4.51,16.59-4.07,21.33,1.2,30.74-6.26,33.35,6.1C268.22,81.56,266.65,111.93,266.65,111.93Z" fill="#68e1fd"></path><path d="M232.7,61.12S232,71.66,232,71.66s.58,6,7.17,4.72a13.36,13.36,0,0,0,9.17-6.88,5.74,5.74,0,0,0,.08-1.71l.21-4.48c.22-4.67.33-21.38.33-21.38s-1.64.37-2.25.44a6.26,6.26,0,0,1-2.65-.26,14.2,14.2,0,0,1-4.22-2.49,15.1,15.1,0,0,1-4-4c-3.15,5.56-9.67,6.5-9.67,6.5s-1.19,11.49,1,14.79C229.82,60.69,232.7,61.12,232.7,61.12Z" fill="#fff"></path><path d="M237.44,77a5.75,5.75,0,0,1-3.54-1.08,6.52,6.52,0,0,1-2.35-4.24c.46-7.08.62-9.43.67-10.22a10.15,10.15,0,0,1-5.34-4.31c-2.31-3.4-1.17-14.62-1.12-15.1a.46.46,0,0,1,.39-.41c.06,0,6.34-1,9.34-6.26a.45.45,0,0,1,.39-.24h0a.48.48,0,0,1,.4.23,14.38,14.38,0,0,0,3.84,3.86,13.63,13.63,0,0,0,4.09,2.42,5.74,5.74,0,0,0,2.45.25c.58-.07,2.2-.43,2.21-.43a.45.45,0,0,1,.39.09.44.44,0,0,1,.17.35c0,.17-.12,16.78-.34,21.4l-.21,4.48c0,.13,0,.28,0,.46a3.16,3.16,0,0,1-.13,1.42,13.67,13.67,0,0,1-9.5,7.14A9.16,9.16,0,0,1,237.44,77Zm-5-5.33a5,5,0,0,0,6.63,4.25,13,13,0,0,0,8.84-6.63,2.87,2.87,0,0,0,0-1,5.12,5.12,0,0,1,0-.54l.21-4.48c.2-4.12.31-17.82.33-20.79-.54.11-1.34.28-1.74.33a6.77,6.77,0,0,1-2.84-.29A14.71,14.71,0,0,1,239.57,40a17.65,17.65,0,0,1-3.67-3.5,14.82,14.82,0,0,1-9.27,6c-.17,1.91-.91,11.33,1,14.14,2.41,3.55,5.11,4,5.14,4a.46.46,0,0,1,.38.49c0,.14-.68,10.43-.69,10.53Z" fill="#231f20"></path><path d="M247.67,49.17A3.75,3.75,0,0,1,249,47.25a6.76,6.76,0,0,1,2-.91,2.67,2.67,0,0,1,1.21-.16,2.29,2.29,0,0,1,.79.33,2.84,2.84,0,0,1,1.3,1.5,3.29,3.29,0,0,1,0,1.62,6.36,6.36,0,0,1-.51,1.71,4.5,4.5,0,0,1-6.06,2.07" fill="#fff"></path><path d="M249.79,54.27a5,5,0,0,1-2.19-.51.41.41,0,0,1-.18-.53.4.4,0,0,1,.54-.18,4.1,4.1,0,0,0,5.52-1.89,6,6,0,0,0,.48-1.6,3,3,0,0,0,0-1.43,2.47,2.47,0,0,0-1.13-1.28,1.81,1.81,0,0,0-.65-.28,2.37,2.37,0,0,0-1,.15,6.25,6.25,0,0,0-1.91.85,3.3,3.3,0,0,0-1.21,1.72.38.38,0,0,1-.49.26.4.4,0,0,1-.27-.49,4.08,4.08,0,0,1,1.49-2.13,7,7,0,0,1,2.16-1,3.08,3.08,0,0,1,1.38-.17,2.72,2.72,0,0,1,.94.38,3.19,3.19,0,0,1,1.47,1.72,3.83,3.83,0,0,1,0,1.81,7.49,7.49,0,0,1-.55,1.81,4.94,4.94,0,0,1-2.83,2.5A4.72,4.72,0,0,1,249.79,54.27Z" fill="#231f20"></path><path d="M232.61,65.29s4.24,1.53,7.24-1.1a7.43,7.43,0,0,0,2.82-5.55s-5.73,3.75-10,2.7Z" fill="#231f20"></path><path d="M235.44,66.18a9.8,9.8,0,0,1-3-.47.44.44,0,0,1-.29-.43l.1-4a.48.48,0,0,1,.18-.34.44.44,0,0,1,.37-.07c4,1,9.55-2.61,9.61-2.64a.43.43,0,0,1,.44,0,.44.44,0,0,1,.24.37,7.8,7.8,0,0,1-3,5.91A7,7,0,0,1,235.44,66.18ZM233.06,65c1,.27,4.18.93,6.5-1.11a7.58,7.58,0,0,0,2.61-4.4c-1.64.94-5.65,2.95-9,2.41Z" fill="#231f20"></path><path d="M232.23,44.48s-3.82,4.8-3.08,5.75,3,.55,3,.55" fill="#fff"></path><path d="M231.13,51.31a2.94,2.94,0,0,1-2.33-.81c-.83-1.06,1.58-4.4,3.08-6.3a.44.44,0,0,1,.62-.07.44.44,0,0,1,.08.62c-1.84,2.31-3.27,4.75-3.08,5.22.41.53,1.83.51,2.62.37a.45.45,0,0,1,.51.37.44.44,0,0,1-.36.51A7.08,7.08,0,0,1,231.13,51.31Z" fill="#231f20"></path><ellipse cx="237.87" cy="45.21" rx="1.19" ry="0.84" transform="translate(125.43 259.64) rotate(-73.09)" fill="#231f20"></ellipse><ellipse cx="228.53" cy="44.64" rx="1.19" ry="0.84" transform="translate(119.34 250.3) rotate(-73.09)" fill="#231f20"></ellipse><path d="M227.88,53s2.69,4.76,8.41.86" fill="#fff"></path><path d="M232.07,55.84a5.23,5.23,0,0,1-1.19-.14,5.52,5.52,0,0,1-3.38-2.49.44.44,0,0,1,.16-.6.45.45,0,0,1,.61.17,4.79,4.79,0,0,0,2.83,2.06A6.31,6.31,0,0,0,236,53.49a.43.43,0,0,1,.61.12.44.44,0,0,1-.11.61A8,8,0,0,1,232.07,55.84Z" fill="#231f20"></path><path d="M228.77,101.12a.46.46,0,0,1-.43-.29c-.24-.63-6-15.36-6.27-16.3s2.34-3.77,4.78-6.09c-1.12-1-4.5-4.21-5.29-5a.77.77,0,0,1-.22-.61c.07-1.52,4.76-5.47,6.2-6.65a.45.45,0,0,1,.64.07.46.46,0,0,1-.06.64c-2.8,2.29-5.78,5.19-5.87,6,1,1,5.53,5.22,5.58,5.26a.47.47,0,0,1,.14.33.48.48,0,0,1-.14.34c-2.31,2.17-4.84,4.91-4.88,5.52.3.87,6.18,16,6.24,16.21a.45.45,0,0,1-.26.59A.45.45,0,0,1,228.77,101.12Z" fill="#231f20"></path><path d="M249.74,100.18a.54.54,0,0,1-.21-.05.46.46,0,0,1-.19-.62c3.51-6.65,8.82-16.86,9-17.74,0-.51-2.41-2-5.06-3.23a.45.45,0,0,1-.27-.37.46.46,0,0,1,.18-.42s4.69-3.44,5.94-4.38c0-.54-2.88-3-6.24-5.2a.46.46,0,0,1,.51-.76c1.54,1,6.56,4.49,6.61,6a.8.8,0,0,1-.33.67c-1,.73-4,3-5.32,3.93,2.22,1,5.18,2.69,4.87,4s-8.22,16.24-9.12,18A.46.46,0,0,1,249.74,100.18Z" fill="#231f20"></path><path d="M236.5,50.91c-2.87,0-5-2.95-5.75-4.19-.95.89-3.27,2.83-5.76,2.74a2.07,2.07,0,0,1-1.59-.79c-1.43-1.75-.75-5.93-.72-6.11a.45.45,0,0,1,.48-.38l18.68,1.15a.44.44,0,0,1,.32.17.43.43,0,0,1,.11.34c0,.25-.82,6.07-4.85,7A4.18,4.18,0,0,1,236.5,50.91Zm-5.65-5.39h.07a.47.47,0,0,1,.34.24s2.59,4.89,6,4.15c2.79-.62,3.78-4.36,4.05-5.71l-17.76-1.09c-.16,1.32-.28,3.91.59,5a1.22,1.22,0,0,0,.92.46c2.65.08,5.46-2.85,5.49-2.88A.44.44,0,0,1,230.85,45.52Z" fill="#231f20"></path><path d="M217.5,65.91s-23.17,36-25.05,34.13S186,78.12,186,78.12l-16.75,3.44s2.82,45.4,12.84,46.34,36.94-26,36.94-26Z" fill="#68e1fd"></path><path d="M282.68,93.62h3.62a0,0,0,0,1,0,0v27.46a1.81,1.81,0,0,1-1.81,1.81h0a1.81,1.81,0,0,1-1.81-1.81V93.62A0,0,0,0,1,282.68,93.62Z" fill="#68e1fd"></path><path d="M279.47,96.26a2.46,2.46,0,0,0-.55-.3,1.56,1.56,0,0,0-2.05.86,3.59,3.59,0,0,0,0,2.31,10.14,10.14,0,0,0,2.63,4.52c1,1,2.77,1.5,3.78,0a2.77,2.77,0,0,0,.26-2.29,6.23,6.23,0,0,0-1.16-2.07,19.6,19.6,0,0,0-2.52-2.71Z" fill="#fff"></path><path d="M281.63,105.07a3.6,3.6,0,0,1-2.42-1.09,10.8,10.8,0,0,1-2.75-4.73,4.07,4.07,0,0,1,0-2.61,2,2,0,0,1,2.63-1.11,2.6,2.6,0,0,1,.66.37h0a4,4,0,0,1,.45.37A19.88,19.88,0,0,1,282.77,99a6.92,6.92,0,0,1,1.24,2.22,3.2,3.2,0,0,1-.33,2.68,2.43,2.43,0,0,1-1.8,1.12Zm-3.32-8.77a1.08,1.08,0,0,0-1,.69,3.11,3.11,0,0,0,0,2,9.85,9.85,0,0,0,2.51,4.32,2.58,2.58,0,0,0,1.94.82,1.52,1.52,0,0,0,1.14-.73,2.27,2.27,0,0,0,.2-1.9,6,6,0,0,0-1.08-1.92A19.19,19.19,0,0,0,279.59,97l-.39-.33a2.54,2.54,0,0,0-.44-.25A1.47,1.47,0,0,0,278.31,96.3Z" fill="#231f20"></path><path d="M286.33,97.68c-.16.14-.31.3-.46.45a2.61,2.61,0,0,0-.92,2.16,1.48,1.48,0,0,0,1.11,1.12,3.2,3.2,0,0,0,1.49-.18,9.69,9.69,0,0,0-2.25,1.13,1.56,1.56,0,0,0-.84,1.21,1.21,1.21,0,0,0,1.07,1.17,13.39,13.39,0,0,1,1.55.06,5.6,5.6,0,0,0-2.66,1.84,2.79,2.79,0,0,0-.69,1.56,2.06,2.06,0,0,0,1.2,1.93,3.9,3.9,0,0,0,2.09.11,3,3,0,0,0-2.12,1.39,3,3,0,0,0,.66,3.18,3.77,3.77,0,0,0,2.73.88c1.19,0,3.26,0,4.37-.65,1.63-1,2-3.92,2.24-5.89.16-1.54.25-3.09.29-4.64.06-2.39-.05-6.48-1.94-7.92C291,94.85,288.3,95.87,286.33,97.68Z" fill="#fff"></path><path d="M288.2,116.15a4.09,4.09,0,0,1-3-1,3.44,3.44,0,0,1-.75-3.71,2.52,2.52,0,0,1,.58-.77,2,2,0,0,1-.32-.11,2.53,2.53,0,0,1-1.48-2.38,3.12,3.12,0,0,1,.8-1.82,6.31,6.31,0,0,1,1.25-1.18,1.67,1.67,0,0,1-1.32-1.61,2,2,0,0,1,1.05-1.58l.45-.29a1.94,1.94,0,0,1-1-1.31,2.92,2.92,0,0,1,1-2.56c.16-.17.32-.32.48-.48h0c2.56-2.34,5.36-2.75,7.51-1.11,1.53,1.17,2.22,3.88,2.12,8.29,0,1.56-.14,3.14-.29,4.67-.24,2.37-.73,5.22-2.47,6.24-1.15.68-3.09.7-4.38.71h-.31ZM287,109.78a.45.45,0,0,1,.44.37.46.46,0,0,1-.32.53,2.55,2.55,0,0,0-1.83,1.16,2.47,2.47,0,0,0,.57,2.64,3.21,3.21,0,0,0,2.4.75h.22a9.33,9.33,0,0,0,3.93-.59c1.38-.81,1.8-3.39,2-5.54.15-1.51.25-3.06.28-4.6.12-5-.89-6.88-1.75-7.54-2.55-1.95-5.28.09-6.34,1.05l-.45.44a2.11,2.11,0,0,0-.79,1.75,1,1,0,0,0,.75.76,2.87,2.87,0,0,0,1.27-.17.45.45,0,0,1,.56.3.46.46,0,0,1-.28.57,9.22,9.22,0,0,0-2.15,1.08c-.42.28-.63.55-.63.84a.75.75,0,0,0,.67.71,3,3,0,0,0,.6,0,2.94,2.94,0,0,1,1,.06.45.45,0,0,1,.34.44.46.46,0,0,1-.33.44,5,5,0,0,0-2.43,1.69,2.34,2.34,0,0,0-.6,1.29,1.63,1.63,0,0,0,.93,1.49,3.6,3.6,0,0,0,1.85.08Z" fill="#231f20"></path><path d="M272.49,131.43c-3.13,0-6-2-8.57-5.94-7.53-11.61-4.33-28.81-4.29-29a.45.45,0,1,1,.89.17c0,.17-3.16,17,4.16,28.31,2.57,4,5.42,5.8,8.49,5.49a9.94,9.94,0,0,0,6.51-4.14.46.46,0,0,1,.87.3,10.53,10.53,0,0,1-7.09,4.73A8,8,0,0,1,272.49,131.43Z" fill="#231f20"></path><path d="M270.72,107.85a.46.46,0,0,1-.39-.21.47.47,0,0,1,.14-.63l6.11-3.91a.45.45,0,0,1,.63.13.47.47,0,0,1-.14.64l-6.1,3.91A.47.47,0,0,1,270.72,107.85Z" fill="#231f20"></path><path d="M171.62,80c-.55-.16-.08-1-.13-1.29-.68-3.69-2.9-7.76-3.58-11.45-.62-3.36-1.22-7,.1-10.11a9.06,9.06,0,0,1,3.48-4.09,10.06,10.06,0,0,1,5.8-1.6c4.85.54,7.42,6.88,7.14,11.19A45.69,45.69,0,0,1,183.14,69a19.77,19.77,0,0,0-.08,9.93" fill="#fff"></path><path d="M171.65,80.46l-.15,0c-.8-.23-.59-1.12-.51-1.45a1.24,1.24,0,0,0,0-.23,34.31,34.31,0,0,0-1.76-5.61,36.42,36.42,0,0,1-1.81-5.8c-.57-3.12-1.28-7,.13-10.38a9.49,9.49,0,0,1,3.65-4.29A10.67,10.67,0,0,1,177.35,51c5.09.58,7.82,7.19,7.54,11.67a24.71,24.71,0,0,1-.83,4.41c-.17.66-.33,1.32-.47,2a19.32,19.32,0,0,0-.09,9.73.46.46,0,1,1-.89.21,20.31,20.31,0,0,1,.08-10.13c.14-.68.31-1.35.48-2a23.82,23.82,0,0,0,.8-4.24c.27-4.13-2.17-10.19-6.73-10.71a9.57,9.57,0,0,0-5.51,1.54,8.58,8.58,0,0,0-3.3,3.87c-1.31,3.14-.62,6.87-.07,9.86a34.54,34.54,0,0,0,1.77,5.65,36.11,36.11,0,0,1,1.81,5.8,1.44,1.44,0,0,1-.06.57,1.52,1.52,0,0,0-.07.43.41.41,0,0,1,.29.53A.46.46,0,0,1,171.65,80.46Z" fill="#231f20"></path><path d="M178.86,40h-9.13a1.32,1.32,0,0,0,0,2.63h.33V79.73a4.24,4.24,0,1,0,8.47,0V42.65h.33a1.32,1.32,0,1,0,0-2.63Z" fill="#fff"></path><path d="M174.3,84.42a4.7,4.7,0,0,1-4.7-4.69V43.1a1.77,1.77,0,0,1,.13-3.54h9.13A1.77,1.77,0,0,1,179,43.1V79.73A4.7,4.7,0,0,1,174.3,84.42Zm-4.57-43.95a.86.86,0,0,0,0,1.72h.33a.46.46,0,0,1,.46.46V79.73a3.78,3.78,0,1,0,7.56,0V42.65a.45.45,0,0,1,.45-.46h.33a.86.86,0,1,0,0-1.72Z" fill="#231f20"></path><path d="M172.15,46.5h4.29a0,0,0,0,1,0,0V79.09a2.15,2.15,0,0,1-2.15,2.15h0a2.15,2.15,0,0,1-2.15-2.15V46.5A0,0,0,0,1,172.15,46.5Z" fill="#68e1fd"></path><path d="M173.06,53a1.21,1.21,0,0,1,.13,1.28,1.08,1.08,0,0,1-.54.35,5.77,5.77,0,0,1-2.25.39,8.73,8.73,0,0,1,4.07,2.33,2.38,2.38,0,0,1,.65,1,1.85,1.85,0,0,1-1.51,2,5.35,5.35,0,0,1-2.78-.37c1.54.89,3.18,1.89,3.86,3.53a1.76,1.76,0,0,1,.16,1,1.56,1.56,0,0,1-1.46,1.15,4.49,4.49,0,0,1-1.93-.4,5.94,5.94,0,0,1,2.65,2.45,2.66,2.66,0,0,1-.65,3.3,3.31,3.31,0,0,1-2.38.34,9.51,9.51,0,0,1-5.94-3.45c-.58-.73-1.52-2-1.4-3,.07-.66,1.4-2.2,2.18-1.69a5.39,5.39,0,0,1-1.73-1.59c-.89-1.47.48-2.46,1.69-3.09-.17.14-.43,0-.61-.08a2.48,2.48,0,0,1-1.2-2.83,3.41,3.41,0,0,1,1.9-1.56c-.88.4-1.89-2.48-1.7-3.1a2.8,2.8,0,0,1,2.95-1.75A8,8,0,0,1,173.06,53Z" fill="#fff"></path><path d="M171.91,71.91a5.88,5.88,0,0,1-.9-.08,9.91,9.91,0,0,1-6.23-3.62c-.81-1-1.62-2.2-1.5-3.29A3.25,3.25,0,0,1,164.74,63a4.53,4.53,0,0,1-.94-1.06,2,2,0,0,1-.28-1.65,3,3,0,0,1,1.25-1.55,2.58,2.58,0,0,1,.15-4.57,5,5,0,0,1-1.09-3.27,3.25,3.25,0,0,1,3.42-2.07,8.52,8.52,0,0,1,6.2,4h0a1.57,1.57,0,0,1,.11,1.78,1.6,1.6,0,0,1-.75.51,5.08,5.08,0,0,1-.51.17,9.42,9.42,0,0,1,2.5,1.8,2.78,2.78,0,0,1,.76,1.2,1.82,1.82,0,0,1-.23,1.44,2.61,2.61,0,0,1-1.62,1.16,2.72,2.72,0,0,1-.63.08,6,6,0,0,1,2,2.46,2.12,2.12,0,0,1,.19,1.24,2,2,0,0,1-1.82,1.52,5,5,0,0,1,1.05,1.4,2.86,2.86,0,0,1-2.62,4.37Zm-6.34-8.26a.65.65,0,0,0-.24.06A2.55,2.55,0,0,0,164.19,65c-.1.85.89,2.09,1.31,2.61a9,9,0,0,0,5.64,3.29,2.87,2.87,0,0,0,2.07-.27,2.22,2.22,0,0,0,.49-2.73,5.34,5.34,0,0,0-2.46-2.23.46.46,0,0,1,.37-.84,4.24,4.24,0,0,0,1.74.38,1.14,1.14,0,0,0,1.05-.78,1.33,1.33,0,0,0-.13-.73c-.6-1.45-2-2.35-3.66-3.3a.45.45,0,0,1-.19-.58.45.45,0,0,1,.55-.25,5.06,5.06,0,0,0,2.54.35,1.75,1.75,0,0,0,1-.74,1,1,0,0,0,.13-.74,2,2,0,0,0-.53-.79,8.31,8.31,0,0,0-3.86-2.2.46.46,0,0,1,.12-.9,5.61,5.61,0,0,0,2.07-.36.9.9,0,0,0,.35-.2c.12-.16,0-.51-.17-.78h0a7.49,7.49,0,0,0-5.46-3.49,2.39,2.39,0,0,0-2.49,1.42,4.51,4.51,0,0,0,.72,2.16c.23.36.37.39.37.39a.46.46,0,0,1,.6.23.47.47,0,0,1-.24.61,3,3,0,0,0-1.67,1.31,2.06,2.06,0,0,0,1,2.28l.14.07,0,0a.46.46,0,0,1,.59.16.45.45,0,0,1-.09.6.71.71,0,0,1-.22.13c-.91.49-1.42,1-1.55,1.44a1.17,1.17,0,0,0,.18.93,4.93,4.93,0,0,0,1.59,1.45h0a.45.45,0,1,1-.5.76h0A.18.18,0,0,0,165.57,63.65Z" fill="#231f20"></path><path d="M183.38,57a22.3,22.3,0,0,0-3.72-4.52,6.09,6.09,0,0,0-4.82-1.56,1.05,1.05,0,0,0-.43.15.81.81,0,0,0-.31.61c-.06.8.61,1.43,1.16,2a18,18,0,0,1,4.34,8" fill="#fff"></path><path d="M179.6,62.14a.47.47,0,0,1-.45-.37A17.65,17.65,0,0,0,174.93,54l-.11-.13a3,3,0,0,1-1.17-2.22,1.25,1.25,0,0,1,.49-1,1.47,1.47,0,0,1,.63-.23A6.57,6.57,0,0,1,180,52.13a22.72,22.72,0,0,1,3.81,4.64.46.46,0,0,1-.2.61.45.45,0,0,1-.62-.2,22.18,22.18,0,0,0-3.62-4.39,5.68,5.68,0,0,0-4.43-1.44.78.78,0,0,0-.25.07.4.4,0,0,0-.11.28c0,.53.44,1,.91,1.52l.12.13a18.12,18.12,0,0,1,4.46,8.25.45.45,0,0,1-.36.53Z" fill="#231f20"></path><path d="M127.18,134.79a13.15,13.15,0,0,0,4.69,13.05h16.4a13.14,13.14,0,0,0,5-10.31,13,13,0,0,0-.29-2.74Z" fill="#d1d3d4"></path><path d="M102.21,138.67l-3.31,5.58a2.38,2.38,0,0,0,2,3.59h14.6a2.38,2.38,0,0,0,2-3.59l-3.32-5.58Z" fill="#d1d3d4"></path><path d="M316.21,80.1H275.63a.5.5,0,0,1-.5-.5V44.44a.5.5,0,0,1,.5-.5h40.58a.5.5,0,0,1,.5.5V79.6A.5.5,0,0,1,316.21,80.1Zm-40.08-1h39.58V44.94H276.13Z" fill="#d1d3d4"></path><path d="M307.15,62.52h-9.22a.5.5,0,0,1-.5-.5.5.5,0,0,1,.5-.5h9.22a.51.51,0,0,1,.5.5A.5.5,0,0,1,307.15,62.52Z" fill="#d1d3d4"></path><path d="M293.32,60.51h-4.21a.5.5,0,0,1-.5-.5.5.5,0,0,1,.5-.5h4.21a.5.5,0,0,1,.5.5A.51.51,0,0,1,293.32,60.51Z" fill="#d1d3d4"></path><path d="M293,62.89h-4a.5.5,0,0,1,0-1h4a.5.5,0,0,1,0,1Z" fill="#d1d3d4"></path><path d="M300.46,57.94a.52.52,0,0,1-.21,0,.5.5,0,0,1-.24-.67l1.83-3.85a.52.52,0,0,1,.9,0l1.57,3.3,2.44-1.83a.49.49,0,0,1,.7.1.5.5,0,0,1-.1.7l-2.93,2.19a.52.52,0,0,1-.42.09.55.55,0,0,1-.33-.27l-1.38-2.9-1.38,2.9A.48.48,0,0,1,300.46,57.94Z" fill="#d1d3d4"></path><path d="M299.4,69.69a.5.5,0,0,1-.27-.08.49.49,0,0,1-.15-.69l1.09-1.69c.14-.21.54-.84,1.21-.77s.9.86,1,1.33l0,.18.06-.09a2.11,2.11,0,0,1,.83-.88,2.28,2.28,0,0,1,1.54-.07c.45.08.73.12.89,0a.49.49,0,0,1,.7,0,.5.5,0,0,1,0,.71,1.9,1.9,0,0,1-1.74.25,1.57,1.57,0,0,0-.91,0,1.47,1.47,0,0,0-.44.52,2.2,2.2,0,0,1-.84.88.49.49,0,0,1-.53-.05,1.84,1.84,0,0,1-.55-1.32,2.58,2.58,0,0,0-.09-.48s-.09.1-.24.33l-1.09,1.69A.51.51,0,0,1,299.4,69.69Z" fill="#d1d3d4"></path><path d="M280.3,62.7a.43.43,0,0,1-.19,0,.51.51,0,0,1-.28-.65,1.47,1.47,0,0,0,0-.75c0-.15,0-.29-.05-.44a1.75,1.75,0,0,1,.38-1.26,1,1,0,0,1,.76-.37,1.57,1.57,0,0,1,1.28.84l.14.19a.5.5,0,0,0,.26.15.49.49,0,0,1,.41-.27.48.48,0,0,1,.51.33c.18.5.41.77.53.73s.22-.14.35-.26l.17-.17a1.14,1.14,0,0,1,1.56-.1.5.5,0,0,1,0,.71.5.5,0,0,1-.71,0s-.08.08-.17.16l-.14.13a1.67,1.67,0,0,1-.89.54,1.34,1.34,0,0,1-1.36-.79,1.49,1.49,0,0,1-1.29-.51l-.17-.23c-.13-.18-.33-.41-.43-.43a.74.74,0,0,0-.19.55c0,.13,0,.25.05.37a2.31,2.31,0,0,1-.05,1.27A.49.49,0,0,1,280.3,62.7Z" fill="#d1d3d4"></path><path d="M116,48a36.53,36.53,0,0,1-6.16-.67,8.08,8.08,0,0,1-3.43-1.13,3.74,3.74,0,0,1-2.07,1.41,3.63,3.63,0,0,1-3.07-.47,6.41,6.41,0,0,1-.58-.48,3.33,3.33,0,0,0-.86-.61c-.8-.31-1.8.17-3,1.49a.49.49,0,0,1-.7,0,.5.5,0,0,1,0-.71c.57-.6,2.31-2.44,4.13-1.73a4.06,4.06,0,0,1,1.16.8l.5.41a2.68,2.68,0,0,0,2.22.32,2.64,2.64,0,0,0,1.74-1.41.5.5,0,0,1,.36-.29.53.53,0,0,1,.45.13A6.18,6.18,0,0,0,110,46.32c4.38.73,8.27,1.19,11.58-.54l.61-.34a5.81,5.81,0,0,1,2.53-.95,5.67,5.67,0,0,1,2.36.51l5.18,1.93a.5.5,0,1,1-.35.93l-5.18-1.93a3.57,3.57,0,0,0-4,.38l-.64.35A12.92,12.92,0,0,1,116,48Z" fill="#d1d3d4"></path><path d="M105.3,60c-1.27,0-2.17-1-3-1.81a10.09,10.09,0,0,0-.94-.92,4.31,4.31,0,0,0-5.87.58.5.5,0,0,1-.78-.63,5.33,5.33,0,0,1,7.29-.72,12.24,12.24,0,0,1,1,1c.73.79,1.42,1.53,2.3,1.49a3.39,3.39,0,0,0,1.76-.92,9.2,9.2,0,0,1,1-.72,8.07,8.07,0,0,1,4.68-.63,17.86,17.86,0,0,0,2.19,0,15.39,15.39,0,0,0,2.07-.34,14.7,14.7,0,0,1,2.33-.36,15.43,15.43,0,0,1,5.32.93l1.24.36c2.65.73,4.56.71,6-.08a.5.5,0,0,1,.68.21.49.49,0,0,1-.21.67c-2.25,1.2-4.94.67-6.77.16L124.45,58a14.94,14.94,0,0,0-5-.9,15.53,15.53,0,0,0-2.17.35,16.16,16.16,0,0,1-2.21.36,19.88,19.88,0,0,1-2.32,0,7.11,7.11,0,0,0-4.12.5,7.93,7.93,0,0,0-.9.64A4.11,4.11,0,0,1,105.42,60Z" fill="#d1d3d4"></path><path d="M97.66,81a.91.91,0,0,1-.23,0,1.39,1.39,0,0,1-.78-1.21l-.43-11.38a.5.5,0,0,1,1,0l.43,11.39a.47.47,0,0,0,.06.19.54.54,0,0,1,.44.1.49.49,0,0,1,.07.7A.69.69,0,0,1,97.66,81Z" fill="#d1d3d4"></path><path d="M113.92,81.31h0c-5.82-.28-11.72-.29-17.54,0a.49.49,0,0,1-.52-.48.5.5,0,0,1,.48-.52c5.85-.28,11.78-.27,17.62,0a.5.5,0,0,1,0,1Z" fill="#d1d3d4"></path><path d="M99.7,79.5a.5.5,0,0,1-.31-.1.51.51,0,0,1-.09-.71A49.47,49.47,0,0,1,108,70a.5.5,0,1,1,.61.79,48.16,48.16,0,0,0-8.55,8.51A.48.48,0,0,1,99.7,79.5Z" fill="#d1d3d4"></path><path d="M123.83,75.24a.58.58,0,0,1-.19,0,.5.5,0,0,1-.27-.66l1.1-2.64a.5.5,0,0,1,.43-.3.51.51,0,0,1,.47.25,2.58,2.58,0,0,0,4.06.3A.51.51,0,0,1,130,72a.49.49,0,0,1,.32.5c0,.57.56,1.07,1.13,1.21a5,5,0,0,0,2.23-.17,8.51,8.51,0,0,0,2.44-.84,2.8,2.8,0,0,1-.06-2,1.74,1.74,0,0,1,1.57-1.22.51.51,0,0,1,.47.28,2.83,2.83,0,0,1-.62,3.09,5.25,5.25,0,0,0,3.36.58c.33,0,2-.14,2-1a.5.5,0,0,1,1,.07c-.08,1.11-1.19,1.82-3,1.91-1.51.07-3.07.06-4.19-.93a8.65,8.65,0,0,1-2.8,1,5.75,5.75,0,0,1-2.69.17,2.59,2.59,0,0,1-1.67-1.26,3.76,3.76,0,0,1-4.47-.34l-.78,1.86A.51.51,0,0,1,123.83,75.24Zm13.48-4.64a.92.92,0,0,0-.31.45,1.82,1.82,0,0,0-.07.88A1.93,1.93,0,0,0,137.31,70.6Z" fill="#d1d3d4"></path><path d="M144,60.2a.49.49,0,0,1-.47-.34,10.76,10.76,0,0,1-.31-4L143.76,44a.52.52,0,0,1,.53-.48.49.49,0,0,1,.47.52l-.57,11.94a10.06,10.06,0,0,0,.27,3.6.5.5,0,0,1-.32.63A.45.45,0,0,1,144,60.2Z" fill="#d1d3d4"></path><path d="M151.29,61h-.08c-1.17-.2-1.72-1.47-1.47-3.38a63.79,63.79,0,0,0,.34-13.32.5.5,0,0,1,.46-.54.52.52,0,0,1,.54.46,65.12,65.12,0,0,1-.35,13.53c0,.22-.25,2.11.65,2.27a.5.5,0,0,1-.09,1Z" fill="#d1d3d4"></path><path d="M148.13,50.61c-3.19,0-6.38-.13-9.55-.39a.5.5,0,0,1,.09-1,113.88,113.88,0,0,0,15.89.21.49.49,0,0,1,.53.47.51.51,0,0,1-.47.53Q151.38,50.61,148.13,50.61Z" fill="#d1d3d4"></path><path d="M145.79,55.74a.51.51,0,0,1-.31-.11.5.5,0,0,1-.08-.7l1.92-2.47a.5.5,0,1,1,.79.61l-1.93,2.47A.47.47,0,0,1,145.79,55.74Z" fill="#d1d3d4"></path><path d="M140.32,57.05a.52.52,0,0,1-.21,0A3.94,3.94,0,0,1,138,54.28a.5.5,0,0,1,1-.2,2.88,2.88,0,0,0,1.59,2,.5.5,0,0,1-.21.95Z" fill="#d1d3d4"></path><path d="M153.48,57.39a.5.5,0,0,1-.5-.5V55a.5.5,0,0,1,1,0v1.93A.5.5,0,0,1,153.48,57.39Z" fill="#d1d3d4"></path><path d="M136.1,79.91a7.16,7.16,0,0,1-1.38-.13,11.9,11.9,0,0,1-1.61-.49,4.7,4.7,0,0,0-3.09-.4l-.22.09a1.68,1.68,0,0,1-1.26.14,1.66,1.66,0,0,1-.67-.61l-.16-.21a1.37,1.37,0,0,0-2.15.39.37.37,0,0,1-.48.23.39.39,0,0,1-.22-.49,2,2,0,0,1,1.54-1.21,2,2,0,0,1,1.88.59c.07.08.13.17.19.25s.23.31.36.36a1.06,1.06,0,0,0,.69-.14,2.34,2.34,0,0,1,.24-.09,5.3,5.3,0,0,1,3.6.39,8.25,8.25,0,0,0,6.1.07l5-1.17a.37.37,0,0,1,.45.28.36.36,0,0,1-.28.45l-5,1.17A16.07,16.07,0,0,1,136.1,79.91Z" fill="#d1d3d4"></path><path d="M158.68,76.52a.31.31,0,0,1-.23-.08,4.38,4.38,0,0,0-4.69-.35.38.38,0,1,1-.36-.66,5.15,5.15,0,0,1,5.37.32l2-.35a.39.39,0,0,1,.44.31.38.38,0,0,1-.31.43l-2.21.38Z" fill="#d1d3d4"></path></g></svg>