<svg xmlns="http://www.w3.org/2000/svg" viewBox="0 0 400 300" width="406" height="306" class="illustration styles_illustrationTablet__1DWOa"><g id="_226_statue_of_liberty_outline" data-name="#226_statue_of_liberty_outline"><path d="M288.15,155.31a87.82,87.82,0,0,1-26.59,63.08A86.92,86.92,0,0,1,246.88,230a88,88,0,0,1-20.56,9.5c-1.54.48-3.1.91-4.68,1.31a84.37,84.37,0,0,1-10,1.91A88.15,88.15,0,0,1,138.77,91.9c.4-.39.79-.76,1.21-1.14.78-.73,1.58-1.45,2.39-2.15q2-1.71,4-3.29c.85-.67,1.73-1.31,2.61-1.93,1.38-1,2.79-1.93,4.23-2.82.92-.59,1.85-1.15,2.8-1.68a5.64,5.64,0,0,1,.53-.31c1.46-.83,3-1.62,4.48-2.36.32-.17.61-.32.93-.47h0a88.18,88.18,0,0,1,126.14,79.56Z" fill="#68e1fd"></path><path d="M200,244.46A89.14,89.14,0,0,1,138.08,91.18c.41-.4.8-.78,1.22-1.16.78-.73,1.59-1.46,2.41-2.17,1.34-1.15,2.71-2.27,4.1-3.33.83-.64,1.72-1.3,2.65-2,1.47-1,2.91-2,4.27-2.85.85-.55,1.79-1.11,2.84-1.7a5.36,5.36,0,0,1,.55-.32c1.47-.84,3-1.64,4.51-2.38.3-.16.61-.32.94-.47l.08,0A88.09,88.09,0,0,1,200,66.16a89.17,89.17,0,0,1,26.62,174.26c-1.45.46-3,.89-4.73,1.33a85.35,85.35,0,0,1-10.09,1.93A89.37,89.37,0,0,1,200,244.46ZM162.34,76.7c-.27.12-.52.25-.8.4q-2.26,1.11-4.46,2.35l-.49.28c-1.05.6-2,1.15-2.79,1.68-1.34.83-2.75,1.77-4.19,2.79-.9.64-1.77,1.28-2.58,1.91-1.36,1-2.71,2.13-4,3.25-.8.7-1.59,1.41-2.36,2.13-.41.37-.79.74-1.18,1.12a86.4,86.4,0,0,0-26.63,62.7,87.2,87.2,0,0,0,98.69,86.39,85.59,85.59,0,0,0,9.86-1.89c1.7-.43,3.21-.85,4.62-1.3A87.16,87.16,0,1,0,162.44,76.66Z" fill="#093f68"></path><path d="M261.56,218.39A86.92,86.92,0,0,1,246.88,230a88,88,0,0,1-20.56,9.5c-1.44,0-2.88.06-4.29.06a99.45,99.45,0,0,1-17.64-1.17A33.53,33.53,0,0,1,199,237l12.84-17.1h0l3-4,19.14-25.48,1.82-1.07,1.21-.71.41.13a66.57,66.57,0,0,1,10.94,4.57,25.92,25.92,0,0,1,7.19,5.4C258.16,201.66,260.16,210.21,261.56,218.39Z" fill="#fff"></path><path d="M220.9,240.53a96.7,96.7,0,0,1-16.69-1.19,33.89,33.89,0,0,1-5.51-1.41,1,1,0,0,1-.46-1.54l12.84-17.1,0,0,22.14-29.46a1.2,1.2,0,0,1,.29-.26l3-1.78a1,1,0,0,1,.78-.1l.44.14a67.17,67.17,0,0,1,11.12,4.65,26.53,26.53,0,0,1,7.47,5.62c2.24,2.63,4.31,9.42,6.16,20.18a1,1,0,0,1-.29.88,89.12,89.12,0,0,1-35.64,21.31,1.28,1.28,0,0,1-.27.05c-1.45,0-2.9.06-4.32.06Zm-20.22-4.06a36,36,0,0,0,3.88.91A97.1,97.1,0,0,0,222,238.53c1.36,0,2.74,0,4.13-.06A87.26,87.26,0,0,0,260.49,218c-2.19-12.55-4.26-17.1-5.62-18.69a24.57,24.57,0,0,0-6.91-5.17,65.66,65.66,0,0,0-10.75-4.49l-2.47,1.45-22.05,29.34,0,.05Z" fill="#093f68"></path><path d="M247.15,224.65a1,1,0,0,1-.88-1.48l7.44-13.92a1,1,0,0,1,1.77.94L248,224.12A1,1,0,0,1,247.15,224.65Z" fill="#093f68"></path><path d="M221.64,240.78c1.58-.4,3.14-.83,4.68-1.31a88,88,0,0,0,20.56-9.5l.27-6.33,1.29-30.33.11-2.63-10.18-5.24h0l-2.49,3.86-31.49,49.05-2,3.08s-8.16-.9,4.28.88a42.8,42.8,0,0,0,5,.37" fill="#fff"></path><path d="M211.67,243.69h0a42.35,42.35,0,0,1-5.11-.38c-7.89-1.13-7.89-1.13-7.76-2.21s.61-1,3.12-.72l1.64-2.56,34-52.87a1.09,1.09,0,0,1,.35-.36,1,1,0,0,1,1,0L249,189.79a1,1,0,0,1,.54.93l-.11,2.63L247.88,230a1,1,0,0,1-.47.8,88.4,88.4,0,0,1-20.79,9.61c-1.44.46-3,.89-4.73,1.33a1,1,0,1,1-.49-1.93c1.7-.44,3.22-.86,4.62-1.31a86.41,86.41,0,0,0,19.88-9.11l1.63-38.12-8.8-4.53-2,3.1-32.79,51.06,2.9.42a40.26,40.26,0,0,0,4.86.36,1,1,0,0,1,1,1A1,1,0,0,1,211.67,243.69Z" fill="#093f68"></path><path d="M165.17,152.87,159,108.33S163.2,97,162.11,86s-18.52-6.5-22.09,0,3.76,23.73,3.76,26,1.56,62.94,1.56,62.94Z" fill="#fff"></path><path d="M145.34,175.94a1.07,1.07,0,0,1-.35-.06,1,1,0,0,1-.65-.91c-.06-2.48-1.56-60.72-1.56-63a31.14,31.14,0,0,0-1.13-4.09c-2-6.44-5.36-17.21-2.51-22.38,2.57-4.67,11.31-8.17,17.32-6.94a7.81,7.81,0,0,1,6.64,7.32c1,10.37-2.42,20.78-3,22.52l6.1,44.31a1,1,0,0,1-.24.8l-19.84,22.07A1,1,0,0,1,145.34,175.94Zm8.47-95.6c-5,0-11,2.74-12.92,6.15-2.43,4.43.88,15.09,2.67,20.82a22.65,22.65,0,0,1,1.22,4.69c0,2,1.2,48.92,1.49,60.4l17.85-19.85-6.07-44.09a1,1,0,0,1,0-.48c0-.11,4.06-11.22,3-21.87a5.8,5.8,0,0,0-5.05-5.56A11,11,0,0,0,153.81,80.34Z" fill="#093f68"></path><path d="M179.85,158.33l-13-8.14s-30.41,31.49-26.05,32.28a13.18,13.18,0,0,1,6.56,3l11.05,13.45v29.49S208,191,214.2,186.82a40.61,40.61,0,0,1,12.5-5.54Z" fill="#fff"></path><path d="M158.43,229.38a1,1,0,0,1-1-1V199.25l-10.78-13.12a12.69,12.69,0,0,0-6-2.68,1.44,1.44,0,0,1-1.17-1c-.3-.94-.86-2.69,13-18.24,6.69-7.49,13.6-14.65,13.66-14.72a1,1,0,0,1,1.26-.16l12.92,8.11,46.81,22.93a1,1,0,0,1-.22,1.88,39.77,39.77,0,0,0-12.16,5.39c-6.06,4.09-55.24,41.15-55.73,41.52A1,1,0,0,1,158.43,229.38Zm-17-47.81a13.88,13.88,0,0,1,6.63,3.16.27.27,0,0,1,.07.08l11,13.45a1,1,0,0,1,.23.63v27.48c8.7-6.55,48.66-36.63,54.21-40.38a41.9,41.9,0,0,1,10.28-5l-44.51-21.8-.09,0L167,151.47C154.81,164.17,142.39,178.36,141.45,181.57Z" fill="#093f68"></path><path d="M187.71,140.31s0,8-2.07,11.12a59.65,59.65,0,0,1-5.79,6.9l17,12.91s10,7.07,17.36,6.08l16.25,5.15s3.57-17,0-22-6.13-7.71-6.13-10.68a68.46,68.46,0,0,1,1.38-9.51s-7.12-20.37-20.18-14.63S190.48,127.84,187.71,140.31Z" fill="#fff"></path><path d="M230.45,183.47a1,1,0,0,1-.3-.05l-16-5.08c-7.62.86-17.43-6-17.85-6.28l-17-12.94a1,1,0,0,1-.39-.72,1,1,0,0,1,.28-.77,58.36,58.36,0,0,0,5.67-6.76c1.58-2.36,1.92-8.42,1.91-10.56a.76.76,0,0,1,0-.21c2.07-9.33,3.81-10.24,10.16-12.29a78.19,78.19,0,0,0,8.22-3,11.36,11.36,0,0,1,9.42-.15c7.85,3.41,11.94,14.89,12.11,15.37a1,1,0,0,1,0,.54,68.36,68.36,0,0,0-1.36,9.3c0,2.08,1.61,4.24,4,7.51.59.8,1.23,1.65,1.91,2.59,3.71,5.16.54,21,.16,22.75a1,1,0,0,1-.47.66A1,1,0,0,1,230.45,183.47Zm-16.25-7.15a.94.94,0,0,1,.3.05l15.19,4.81c1-5.28,2.47-16.59-.05-20.09-.66-.93-1.3-1.78-1.88-2.56-2.68-3.6-4.44-6-4.44-8.71a64.52,64.52,0,0,1,1.35-9.43c-.64-1.67-4.48-11.15-10.94-13.95a9.44,9.44,0,0,0-7.81.15,78.79,78.79,0,0,1-8.41,3.13c-5.7,1.83-6.9,2.22-8.8,10.7,0,1.05-.12,8.38-2.24,11.56a54.93,54.93,0,0,1-5.13,6.23l16.1,12.23c.07.05,9.77,6.82,16.63,5.89Z" fill="#093f68"></path><path d="M196.84,162.48v8.76s-1,12.81,8.68,12.81c6.09,0,8.68-6.73,8.68-6.73v-20Z" fill="#fff"></path><path d="M205.52,185.05a8.52,8.52,0,0,1-6.53-2.67c-3.67-4-3.17-10.93-3.15-11.22v-8.68a1,1,0,0,1,.71-.95l17.37-5.2a1,1,0,0,1,1.28,1v20a1,1,0,0,1-.06.36c-.12.3-2.92,7.37-9.62,7.37Zm-7.68-21.82v8c0,.14-.46,6.46,2.62,9.78a6.5,6.5,0,0,0,5.06,2h0c4.85,0,7.26-5,7.68-5.93V158.63Z" fill="#093f68"></path><polygon points="218.73 126.69 251.38 112.17 223.32 136.06 218.73 126.69" fill="#fff"></polygon><path d="M223.32,137.06l-.2,0a1,1,0,0,1-.7-.54l-4.59-9.37a1,1,0,0,1,.49-1.36L251,111.26a1,1,0,0,1,1.06,1.68L224,136.82A1,1,0,0,1,223.32,137.06Zm-3.24-9.88,3.57,7.28,21.81-18.56Z" fill="#093f68"></path><polygon points="211.01 123.16 231.49 95.4 218.73 126.69 211.01 123.16" fill="#fff"></polygon><path d="M218.73,127.69a1.06,1.06,0,0,1-.42-.09l-7.71-3.54a1,1,0,0,1-.56-.65,1,1,0,0,1,.17-.85l20.48-27.75a1,1,0,0,1,1.29-.28,1,1,0,0,1,.44,1.25l-12.76,31.29a1,1,0,0,1-.56.55A1.21,1.21,0,0,1,218.73,127.69Zm-6.18-4.93,5.65,2.58,9.34-22.9Z" fill="#093f68"></path><polygon points="192.43 125.65 162.48 112.17 188.9 134.88 192.43 125.65" fill="#fff"></polygon><path d="M188.9,135.88a1,1,0,0,1-.65-.24l-26.42-22.71a1,1,0,0,1,1.06-1.67l30,13.48a1,1,0,0,1,.53,1.27l-3.54,9.23a1,1,0,0,1-.68.61Zm-20.52-20,20.09,17.28,2.69-7Z" fill="#093f68"></path><polygon points="202.41 122.12 180.74 94.22 194.54 127.61 202.41 122.12" fill="#fff"></polygon><path d="M194.54,128.61a1.35,1.35,0,0,1-.28,0,1,1,0,0,1-.64-.58L179.81,94.6a1,1,0,0,1,1.72-1l21.66,27.9a1,1,0,0,1-.21,1.44l-7.87,5.49A1,1,0,0,1,194.54,128.61Zm-10-27.93,10.5,25.4,6-4.18Z" fill="#093f68"></path><polygon points="211.01 123.16 205.82 90.66 202.26 123.9 211.01 123.16" fill="#fff"></polygon><path d="M202.26,124.9a1,1,0,0,1-1-1.11l3.56-33.24a1,1,0,0,1,2,0L212,123a1,1,0,0,1-.2.77,1,1,0,0,1-.7.38l-8.76.74ZM206,98.22l-2.63,24.58,6.48-.55Z" fill="#093f68"></path><path d="M187.71,140.31s4-11.84,20.58-10.28c16.06,1.52,17.41,10.28,17.41,10.28s1.61-19.54-19-19.58C185.34,120.7,187.71,140.31,187.71,140.31Z" fill="#fff"></path><path d="M225.7,141.31a1,1,0,0,1-1-.84c-.06-.32-1.54-8-16.52-9.44-15.51-1.46-19.38,9.15-19.54,9.61a1,1,0,0,1-1.94-.21c0-.35-1-8.78,4.38-14.83,3.46-3.9,8.69-5.87,15.55-5.87h.06c6.54,0,11.62,1.93,15.09,5.71,5.56,6.05,4.93,14.59,4.9,14.95a1,1,0,0,1-1,.92Zm-19-19.58c-6.26,0-11,1.74-14,5.18a17,17,0,0,0-3.87,9.6c2.68-3.59,8.46-8.54,19.65-7.47,9.13.86,13.73,4,16,6.74a17.42,17.42,0,0,0-4.11-9c-3.08-3.34-7.66-5-13.61-5Z" fill="#093f68"></path><path d="M207.75,134.14s-1.19,2.82-6.09,5.49a40.32,40.32,0,0,1-10.09,3.71v11.43a14,14,0,0,0,14,13.95h0a14,14,0,0,0,13.95-13.95V144.53S208.92,138.36,207.75,134.14Z" fill="#fff"></path><path d="M205.52,169.72a15,15,0,0,1-15-14.95V143.34a1,1,0,0,1,.8-1,39.61,39.61,0,0,0,9.81-3.61c4.47-2.44,5.64-5,5.65-5a1,1,0,0,1,1-.6,1,1,0,0,1,.89.73c.87,3.14,8.43,8.13,11.27,9.79a1,1,0,0,1,.49.87v10.24A15,15,0,0,1,205.52,169.72Zm-13-25.58v10.63a13,13,0,1,0,25.9,0v-9.68c-2-1.2-8.39-5.24-10.85-9a17.79,17.79,0,0,1-5.48,4.37A41.2,41.2,0,0,1,192.57,144.14Z" fill="#093f68"></path><path d="M221.64,240.78c.12-.34.24-.76.39-1.25,2.82-9.14,12.48-40.52,15.47-50.8.54-1.93.87-3.11.87-3.28h0c-.1-.28-3.86-2.2-7.7-4.08-4.06-2-8.23-4-8.23-4l-1.51,1.06-1,.69-57.74,40.33L155.66,224c1.2.76.77,4,.15,7.57a88.31,88.31,0,0,0,55.86,11.1Z" fill="#fff"></path><path d="M200,244.46a89,89,0,0,1-44.69-12,1,1,0,0,1-.49-1c.88-5,.65-6.33.31-6.55a1,1,0,0,1,0-1.67l66.78-46.63a1,1,0,0,1,1-.09s4.22,2,8.24,4c7.91,3.86,8,4.19,8.2,4.63a1.07,1.07,0,0,1,.06.35,19.14,19.14,0,0,1-.91,3.56c-3,10.16-12.29,40.49-15.36,50.46l-.17.57-.34,1.07a1,1,0,0,1-.76.67l-10,1.9A89.26,89.26,0,0,1,200,244.46Zm-43.09-13.39a87.36,87.36,0,0,0,54.63,10.63l9.33-1.78c0-.15.09-.31.14-.48l.18-.57c3.07-10,12.4-40.28,15.35-50.42.17-.62.53-1.87.72-2.59-.91-.53-3.23-1.75-7-3.6-3.17-1.57-6.44-3.13-7.69-3.72l-2,1.42-63.43,44.3C157.69,225.71,157.41,228.15,156.91,231.07Zm64.73,9.72h0Z" fill="#093f68"></path><path d="M158.43,198.89s7.12-10.49,14-16.42" fill="#fff"></path><path d="M158.43,199.89a1,1,0,0,1-.56-.17,1,1,0,0,1-.27-1.39c.29-.43,7.28-10.67,14.23-16.62a1,1,0,1,1,1.3,1.52c-6.75,5.78-13.81,16.12-13.88,16.22A1,1,0,0,1,158.43,199.89Z" fill="#093f68"></path><path d="M147.38,185.44c-2.68.79,5-6.27,18.07-16.72" fill="#fff"></path><path d="M147.05,186.5a1.17,1.17,0,0,1-1.07-.61c-.44-.85-1-2,18.85-17.95a1,1,0,0,1,1.4.15,1,1,0,0,1-.15,1.41c-11.7,9.38-16.5,13.91-17.85,15.5,0,.05.05.11.07.17a1,1,0,0,1-.64,1.23A2.09,2.09,0,0,1,147.05,186.5Z" fill="#093f68"></path><polyline points="192.43 228.38 222.83 182.47 214.2 218.88" fill="#fff"></polyline><path d="M192.43,229.38a1,1,0,0,1-.55-.17,1,1,0,0,1-.28-1.39l30.4-45.9a1,1,0,0,1,1.23-.37,1,1,0,0,1,.58,1.15l-8.63,36.41a1,1,0,0,1-1.21.74,1,1,0,0,1-.74-1.2l7.33-30.94-27.29,41.22A1,1,0,0,1,192.43,229.38Z" fill="#093f68"></path><polygon points="154.11 117.72 146.36 117.72 145.35 75.63 155.13 75.63 154.11 117.72" fill="#093f68"></polygon><path d="M154.11,118.72h-7.75a1,1,0,0,1-1-1l-1-42.1a1,1,0,0,1,.29-.72,1,1,0,0,1,.71-.3h9.78a1,1,0,0,1,.71.3,1,1,0,0,1,.29.72l-1,42.1A1,1,0,0,1,154.11,118.72Zm-6.77-2h5.8l1-40.09h-7.72Z" fill="#093f68"></path><path d="M142.89,67.44s-4.84-.9-4-8.4,8.73-4.1,12.19-9,1-8.12,1-8.12,7.82,1.22,10.69,8.32c2.94,7.3,1.18,12.5-5,17.2Z" fill="#ffbc0e"></path><path d="M157.79,68.45h-14.9l-.18,0c-.06,0-5.75-1.17-4.8-9.5.57-5,4-5.86,7-6.63,2.11-.54,4.11-1,5.37-2.83,2.95-4.19,1.07-6.84,1-6.95a1,1,0,0,1-.05-1.12,1,1,0,0,1,1-.47c.35,0,8.42,1.4,11.46,8.94s1.43,13.24-5.28,18.37A1,1,0,0,1,157.79,68.45Zm-14.78-2h14.44c5.73-4.5,7-9.25,4.38-15.83a13,13,0,0,0-8.06-7.21c.37,1.64.3,4.15-1.85,7.21-1.69,2.39-4.25,3-6.52,3.62-3,.75-5.09,1.3-5.5,4.92C139.22,65.15,142.45,66.29,143,66.45Z" fill="#093f68"></path><path d="M142.89,68.45a1,1,0,0,1-.74-.33c-.12-.14-2.88-3.25-2-6.42.55-2,2.32-3.43,5.27-4.34,5.82-1.81,10.39-3.43,11.75-6.5.74-1.68.5-3.8-.75-6.47a1,1,0,0,1,1.81-.85c1.51,3.23,1.76,5.89.77,8.13-1.84,4.15-7.76,6-13,7.6-2.26.69-3.58,1.69-3.93,3-.59,2.1,1.55,4.52,1.57,4.55a1,1,0,0,1-.08,1.41A1,1,0,0,1,142.89,68.45Z" fill="#093f68"></path><rect x="138.4" y="79.33" width="13.83" height="4.97" rx="2.32" fill="#fff"></rect><path d="M149.92,85.3h-9.2A3.32,3.32,0,0,1,137.4,82v-.33a3.32,3.32,0,0,1,3.32-3.32h9.2a3.32,3.32,0,0,1,3.31,3.32V82A3.32,3.32,0,0,1,149.92,85.3Zm-9.2-5a1.33,1.33,0,0,0-1.32,1.32V82a1.32,1.32,0,0,0,1.32,1.32h9.2A1.32,1.32,0,0,0,151.23,82v-.33a1.32,1.32,0,0,0-1.31-1.32Z" fill="#093f68"></path><rect x="138.4" y="84.3" width="13.83" height="4.97" rx="2.32" fill="#fff"></rect><path d="M149.92,90.27h-9.2A3.32,3.32,0,0,1,137.4,87v-.33a3.32,3.32,0,0,1,3.32-3.32h9.2a3.32,3.32,0,0,1,3.31,3.32V87A3.32,3.32,0,0,1,149.92,90.27Zm-9.2-5a1.32,1.32,0,0,0-1.32,1.32V87a1.32,1.32,0,0,0,1.32,1.32h9.2A1.32,1.32,0,0,0,151.23,87v-.33a1.32,1.32,0,0,0-1.31-1.32Z" fill="#093f68"></path><rect x="138.4" y="89.27" width="13.83" height="4.97" rx="2.32" fill="#fff"></rect><path d="M149.92,95.23h-9.2a3.32,3.32,0,0,1-3.32-3.31v-.34a3.32,3.32,0,0,1,3.32-3.31h9.2a3.31,3.31,0,0,1,3.31,3.31v.34A3.32,3.32,0,0,1,149.92,95.23Zm-9.2-5a1.32,1.32,0,0,0-1.32,1.31v.34a1.32,1.32,0,0,0,1.32,1.31h9.2a1.31,1.31,0,0,0,1.31-1.31v-.34a1.31,1.31,0,0,0-1.31-1.31Z" fill="#093f68"></path><rect x="138.4" y="94.23" width="13.83" height="4.97" rx="2.32" fill="#fff"></rect><path d="M149.92,100.2h-9.2a3.32,3.32,0,0,1-3.32-3.32v-.33a3.32,3.32,0,0,1,3.32-3.32h9.2a3.32,3.32,0,0,1,3.31,3.32v.33A3.32,3.32,0,0,1,149.92,100.2Zm-9.2-5a1.32,1.32,0,0,0-1.32,1.32v.33a1.32,1.32,0,0,0,1.32,1.32h9.2a1.32,1.32,0,0,0,1.31-1.32v-.33a1.32,1.32,0,0,0-1.31-1.32Z" fill="#093f68"></path><path d="M160.65,83.25a13.74,13.74,0,0,0-7.17-3.48,1.84,1.84,0,0,0-1.79.4c-.54.7.06,1.69.7,2.3a14.54,14.54,0,0,0,4.48,2.93,10,10,0,0,0,1.73,11.29,1.34,1.34,0,0,0,1,.53" fill="#fff"></path><path d="M159.55,98.22a2.45,2.45,0,0,1-1.66-.82,11,11,0,0,1-2.34-11.5,15.22,15.22,0,0,1-3.85-2.71c-1.26-1.2-1.58-2.63-.81-3.63a2.69,2.69,0,0,1,2.74-.78,14.84,14.84,0,0,1,7.7,3.74A1,1,0,1,1,160,84a12.75,12.75,0,0,0-6.64-3.24c-.67-.1-.84,0-.84,0a1.67,1.67,0,0,0,.6,1,13.53,13.53,0,0,0,4.17,2.72,1,1,0,0,1,.56.58,1,1,0,0,1-.05.81A9,9,0,0,0,159.31,96a1.35,1.35,0,0,0,.29.24,1,1,0,0,1,1.06.89,1,1,0,0,1-.93,1.09Z" fill="#093f68"></path><path d="M158.81,76.5H141.76a2.37,2.37,0,0,1-2.35-1.44l-1.62-5.35c-.35-1.16.8-2.27,2.36-2.27h20.28c1.55,0,2.7,1.11,2.35,2.27l-1.61,5.35A2.38,2.38,0,0,1,158.81,76.5Z" fill="#fff"></path><path d="M158.81,77.5H141.76a3.34,3.34,0,0,1-3.31-2.15L136.83,70a2.5,2.5,0,0,1,.41-2.2,3.6,3.6,0,0,1,2.91-1.34h20.28a3.58,3.58,0,0,1,2.9,1.34,2.43,2.43,0,0,1,.41,2.2l-1.61,5.36A3.36,3.36,0,0,1,158.81,77.5Zm-18.66-9a1.6,1.6,0,0,0-1.3.53.45.45,0,0,0-.1.44l1.61,5.36a1.45,1.45,0,0,0,1.4.72h17.05a1.45,1.45,0,0,0,1.4-.72l1.62-5.36a.51.51,0,0,0-.1-.44,1.6,1.6,0,0,0-1.3-.53Z" fill="#093f68"></path></g></svg>